<svg xmlns="http://www.w3.org/2000/svg" width="10" height="19" viewBox="0 0 10 19" fill="none">
    <path d="M9.5 3.5H6.5C5.9477 3.5 5.5 3.94772 5.5 4.5V7.5H9.5C9.6137 7.49748 9.7216 7.5504 9.7892 7.6419C9.8568 7.7334 9.8758 7.852 9.84 7.96L9.1 10.16C9.0318 10.3619 8.8431 10.4984 8.63 10.5H5.5V18C5.5 18.2761 5.2761 18.5 5 18.5H2.5C2.22386 18.5 2 18.2761 2 18V10.5H0.5C0.22386 10.5 0 10.2761 0 10V8C0 7.7239 0.22386 7.5 0.5 7.5H2V4.5C2 2.29086 3.7909 0.5 6 0.5H9.5C9.7761 0.5 10 0.72386 10 1V3C10 3.27614 9.7761 3.5 9.5 3.5Z" fill="white"/>
    </svg>