<svg xmlns="http://www.w3.org/2000/svg" width="21" height="20" viewBox="0 0 21 20" fill="none">
    <path fill-rule="evenodd" clip-rule="evenodd" d="M11.6043 2.17701L13.4317 5.82776C13.6108 6.18616 13.9565 6.43467 14.3573 6.49218L18.4453 7.08062C19.4554 7.22644 19.8573 8.45055 19.1263 9.15194L16.1702 11.9924C15.8797 12.2718 15.7474 12.6733 15.8162 13.0676L16.5138 17.0778C16.6856 18.0698 15.6298 18.8267 14.727 18.3574L11.0732 16.4627C10.715 16.2768 10.286 16.2768 9.92679 16.4627L6.273 18.3574C5.37023 18.8267 4.31439 18.0698 4.48724 17.0778L5.18385 13.0676C5.25257 12.6733 5.12033 12.2718 4.82982 11.9924L1.87368 9.15194C1.14272 8.45055 1.54464 7.22644 2.55466 7.08062L6.64265 6.49218C7.04354 6.43467 7.39028 6.18616 7.56937 5.82776L9.39574 2.17701C9.84765 1.27433 11.1523 1.27433 11.6043 2.17701Z" stroke="#FFB700" stroke-width="1.5" stroke-linecap="round" stroke-linejoin="round"/>
    </svg>