<svg xmlns="http://www.w3.org/2000/svg" width="24" height="25" viewBox="0 0 24 25" fill="none">
    <path d="M20.9727 7.2174C20.5083 7.83692 19.9469 8.37733 19.3102 8.81776C19.3102 8.97959 19.3102 9.14142 19.3102 9.31225C19.3153 12.2511 18.1414 15.0691 16.0517 17.1345C13.9619 19.1999 11.1311 20.3399 8.19393 20.2989C6.49587 20.3046 4.81955 19.9169 3.2963 19.1661C3.21416 19.1302 3.16119 19.049 3.1615 18.9593V18.8604C3.1615 18.7313 3.26611 18.6267 3.39515 18.6267C5.0643 18.5716 6.6739 17.9929 7.99622 16.9724C6.48541 16.9419 5.12607 16.0469 4.50048 14.6707C4.46889 14.5956 4.47872 14.5093 4.52645 14.4432C4.57417 14.3771 4.65288 14.3407 4.73413 14.3471C5.1933 14.3932 5.65706 14.3505 6.10008 14.2212C4.43227 13.875 3.17909 12.4904 2.99974 10.7957C2.99337 10.7144 3.0298 10.6357 3.09588 10.5879C3.16195 10.5402 3.24812 10.5303 3.32326 10.562C3.77082 10.7595 4.25397 10.8635 4.74312 10.8676C3.28172 9.90846 2.65049 8.08405 3.20643 6.42622C3.26382 6.26513 3.40169 6.14612 3.56938 6.11294C3.73706 6.07975 3.90984 6.13728 4.0242 6.26439C5.99627 8.36325 8.70592 9.61396 11.5818 9.75279C11.5082 9.45885 11.472 9.15676 11.474 8.85372C11.5009 7.26472 12.4841 5.84921 13.9633 5.26987C15.4424 4.69054 17.1248 5.06203 18.2229 6.21044C18.9713 6.06785 19.6949 5.81645 20.3706 5.46421C20.4201 5.43331 20.4829 5.43331 20.5324 5.46421C20.5633 5.51373 20.5633 5.57652 20.5324 5.62604C20.2051 6.37552 19.6522 7.00412 18.9508 7.42419C19.565 7.35296 20.1684 7.20807 20.7481 6.99264C20.7969 6.95942 20.861 6.95942 20.9098 6.99264C20.9507 7.01134 20.9813 7.04711 20.9934 7.09042C21.0055 7.13373 20.9979 7.18018 20.9727 7.2174Z" fill="white"/>
    </svg>